Coordinates
version=1
nRows=21
nColumns=28
inDegrees=yes

Units are S.I. units (second, meters, Newtons, ...)
If the header above contains a line with 'inDegrees', this indicates whether rotational values are in degrees (yes) or radians (no).

endheader
time	pelvis_tilt	pelvis_list	pelvis_rotation	pelvis_tx	pelvis_ty	pelvis_tz	hip_flexion_r	hip_adduction_r	hip_rotation_r	knee_angle_r	knee_rotation_r	knee_adduction_r	ankle_angle_r	subtalar_angle_r	mtp_angle_r	hip_flexion_l	hip_adduction_l	hip_rotation_l	knee_angle_l	knee_rotation_l	knee_adduction_l	ankle_angle_l	subtalar_angle_l	mtp_angle_l	lumbar_extension	lumbar_bending	lumbar_rotation
      0.29000000	      6.78433406	      8.46726499	    -98.04053445	     -0.20632861	      0.93715118	     -0.60337270	     16.50891329	    -13.27801014	     11.63245732	    -56.06170047	     -1.01526083	     14.53329939	    -13.11275446	    -18.46422662	     -7.34019587	     36.58727336	      3.70101885	     -2.12154349	    -24.37399100	      9.97517175	     -4.72729925	      5.85758248	    -14.77891188	     -2.32307064	      0.00000000	      0.00000000	      0.00000000
      0.30000000	      7.86317743	      7.73527419	    -97.50163368	     -0.20609754	      0.93884562	     -0.59011305	     17.46350731	    -14.69035038	     10.76254634	    -58.39691558	      1.17402697	     13.98969095	    -15.79660136	    -22.26380935	     -7.82977433	     35.10373043	      5.38965746	     -4.90038534	    -24.10896806	      7.95758593	     -3.35607165	      6.78888140	    -13.90419396	     -2.74439968	      0.00000000	      0.00000000	      0.00000000
      0.31000000	      8.69551833	      7.21806494	    -96.72644106	     -0.20447332	      0.94009536	     -0.57810351	     18.83199730	    -16.13102202	      9.94323917	    -61.00952825	      2.62608836	     13.83510161	    -17.97996084	    -25.05341316	    -14.78320241	     34.00534382	      7.10468161	     -6.30708226	    -24.12887952	      7.22827649	     -2.22148325	      7.77227675	    -12.79712079	     -3.77432953	      0.00000000	      0.00000000	      0.00000000
      0.32000000	      9.29418890	      7.09128223	    -95.76339247	     -0.20325543	      0.94134365	     -0.56704258	     20.52100832	    -17.10833822	      9.15273719	    -63.48975759	      3.59372499	     13.58473586	    -18.17421559	    -27.47529807	    -14.98962152	     33.23475945	      8.36328178	     -5.89048377	    -24.16630983	      7.76311104	     -2.10024055	      8.62684575	    -11.50204172	     -3.77172164	      0.00000000	      0.00000000	      0.00000000
      0.33000000	     10.10015498	      6.87435308	    -95.11630414	     -0.20238653	      0.94300157	     -0.55574614	     22.20301633	    -18.31594669	      8.77636131	    -65.73039292	      3.96692163	     13.38456088	    -17.52162163	    -28.80601380	    -15.09543870	     32.23927714	      9.58240079	     -5.43342300	    -24.01036628	      8.32425409	     -2.25715098	      9.18569264	    -10.82969472	     -3.71024844	      0.00000000	      0.00000000	      0.00000000
      0.34000000	     10.37687599	      6.65747891	    -94.56154437	     -0.20182977	      0.94514879	     -0.54437538	     23.55181308	    -18.72315352	      8.45283907	    -67.39449860	      4.35286386	     13.13701010	    -16.62273169	    -30.43568280	    -15.26841727	     31.16536944	     10.19508512	     -5.05409242	    -23.92192191	      8.20656562	     -2.38546761	      9.85194833	    -10.70276446	     -3.69471079	      0.00000000	      0.00000000	      0.00000000
      0.35000000	     10.88605695	      6.34957773	    -94.01088318	     -0.20093705	      0.94726379	     -0.53262829	     24.91092503	    -19.66164233	      8.16128142	    -69.00015382	      4.10554020	     13.07475000	    -15.68209659	    -30.97914035	    -15.20957156	     29.95831308	     11.09381056	     -4.92413003	    -23.72279396	      7.73266481	     -2.32463356	     10.47387993	    -10.66445366	     -3.72992863	      0.00000000	      0.00000000	      0.00000000
      0.36000000	     11.21862148	      5.95147259	    -93.48676582	     -0.20047711	      0.94970476	     -0.52090925	     26.06843431	    -20.22403845	      7.91218778	    -70.32186671	      3.66571733	     12.83447339	    -14.16361527	    -30.36192895	    -14.83935287	     28.60326994	     11.71531495	     -4.85341621	    -23.51116485	      7.04890545	     -2.31389324	     10.85485216	    -10.85226168	     -3.78050851	      0.00000000	      0.00000000	      0.00000000
      0.37000000	     11.53205046	      5.78009915	    -92.72287027	     -0.19973802	      0.95148136	     -0.50979424	     27.39947435	    -20.89786356	      7.81270148	    -71.40380351	      3.22562456	     12.99414000	    -12.87587689	    -29.49914869	    -14.17802634	     27.44311390	     12.39918480	     -3.60034940	    -23.21522097	      7.19691412	     -2.63482187	     11.22241004	    -10.97989489	     -3.98874749	      0.00000000	      0.00000000	      0.00000000
      0.38000000	     11.68769090	      5.60874379	    -91.89111739	     -0.19884064	      0.95341007	     -0.49829013	     28.45852398	    -21.46307276	      7.42909208	    -71.95284782	      2.82498763	     13.03439313	    -11.57319013	    -28.49755953	    -13.17755938	     26.23085828	     12.97531722	     -2.46729506	    -22.95257662	      7.43211599	     -2.81174449	     11.78097831	    -10.72858900	     -4.29119118	      0.00000000	      0.00000000	      0.00000000
      0.39000000	     11.99175239	      5.46225032	    -91.19869875	     -0.19816382	      0.95490850	     -0.48657315	     29.62452832	    -22.10847971	      7.30261465	    -72.30403000	      2.84075830	     13.14942661	    -10.61569113	    -28.07027349	    -12.46640564	     25.01602414	     13.65509772	     -1.43878318	    -22.63657806	      7.90814705	     -2.87758749	     12.48727454	    -10.09485678	     -4.47973336	      0.00000000	      0.00000000	      0.00000000
      0.40000000	     12.43782842	      5.22601153	    -90.23948072	     -0.19711677	      0.95639862	     -0.47456846	     30.49340587	    -23.16178112	      6.78009847	    -72.36898549	      2.93297486	     13.12460623	     -9.33431759	    -26.63453418	    -11.05637019	     23.61728395	     14.62195901	     -0.24068650	    -22.24998339	      8.45099337	     -2.85587524	     13.24190037	     -9.33797294	     -4.68357510	      0.00000000	      0.00000000	      0.00000000
      0.41000000	     12.66457790	      5.23933411	    -89.62490547	     -0.19663949	      0.95750005	     -0.46321959	     31.73781843	    -23.64004686	      6.90201052	    -72.12632254	      3.13906094	     13.31805739	     -8.20667122	    -25.74543441	     -9.95933962	     22.59685266	     15.12690096	      0.72237364	    -21.96833432	      9.31794314	     -2.94078341	     13.88962415	     -8.35823837	     -4.75059614	      0.00000000	      0.00000000	      0.00000000
      0.42000000	     12.88520564	      5.16569337	    -89.10087483	     -0.19686901	      0.95903792	     -0.45147605	     32.67279524	    -23.84054720	      6.83668631	    -71.34309080	      4.14495758	     13.19251491	     -7.20656812	    -26.16695709	     -9.72709261	     21.34795498	     15.48371500	      1.17099391	    -21.50175351	      9.30926663	     -2.92630363	     14.43281938	     -7.91573935	     -4.76769982	      0.00000000	      0.00000000	      0.00000000
      0.43000000	     13.13449832	      4.99504556	    -88.38410833	     -0.19638191	      0.96042218	     -0.44012400	     33.35610736	    -24.49171729	      6.72852491	    -70.25517222	      4.91077424	     13.52760192	     -6.22068070	    -26.18470072	     -9.46443226	     20.05048850	     15.98346950	      1.56997730	    -21.09579416	      9.49166880	     -2.76714657	     15.04890430	     -6.92984752	     -4.66863083	      0.00000000	      0.00000000	      0.00000000
      0.44000000	     13.26869528	      4.77237610	    -87.88843263	     -0.19633011	      0.96192975	     -0.42845388	     33.89991081	    -24.73031559	      6.73959626	    -68.97531159	      5.13785190	     13.68637041	     -5.12109639	    -25.55490252	     -9.20961816	     18.67735643	     16.23178663	      1.37107193	    -20.66167688	      9.09695109	     -2.47694470	     15.70996997	     -6.06530930	     -4.54644918	      0.00000000	      0.00000000	      0.00000000
      0.45000000	     13.36501773	      4.54776075	    -87.65878020	     -0.19672386	      0.96345932	     -0.41692723	     34.47489493	    -24.68569465	      7.03765011	    -67.36593024	      5.52916810	     13.92431769	     -4.39479402	    -25.78230693	     -9.25770685	     17.29411759	     16.24365658	      0.76400427	    -20.10631861	      8.40070364	     -2.30275332	     16.25161613	     -5.41938273	     -4.37595979	      0.00000000	      0.00000000	      0.00000000
      0.46000000	     13.70333811	      4.49690491	    -87.04731119	     -0.19614570	      0.96424325	     -0.40595361	     35.30041956	    -25.44657598	      7.18992786	    -65.91210011	      5.55013569	     14.41198562	     -3.55732866	    -24.80467788	     -9.26100807	     16.08048995	     16.80920835	      1.55961995	    -19.56206712	      8.60150558	     -2.17875012	     16.58235246	     -5.16405276	     -4.24688720	      0.00000000	      0.00000000	      0.00000000
      0.47000000	     13.62499926	      4.44376486	    -86.72390759	     -0.19647977	      0.96543128	     -0.39474354	     35.72547445	    -25.16157554	      7.47699079	    -63.84446264	      5.51270397	     14.67432974	     -2.55377720	    -24.51036784	     -9.53190430	     14.95696656	     16.65981454	      1.44840517	    -19.18787162	      8.24587821	     -2.12141155	     17.13377217	     -4.44955851	     -4.18881278	      0.00000000	      0.00000000	      0.00000000
      0.48000000	     13.84170856	      4.19122561	    -86.46451487	     -0.19673837	      0.96638936	     -0.38351529	     36.05953948	    -25.36000954	      7.97189903	    -61.74597562	      5.02008012	     15.21083071	     -1.71930721	    -23.91332897	     -9.81000165	     13.55051165	     16.84190038	      1.24174422	    -18.61611192	      7.89767160	     -1.99784847	     17.56029126	     -4.04592498	     -4.14844748	      0.00000000	      0.00000000	      0.00000000
      0.49000000	     14.17292824	      4.20246417	    -86.00030204	     -0.19641498	      0.96663280	     -0.37259337	     36.72947008	    -25.96704164	      8.24208482	    -59.83791301	      3.90468138	     15.71016924	     -0.93484574	    -22.48014719	     -9.75013473	     12.39645063	     17.36222607	      2.55986829	    -18.05300930	      8.58660511	     -1.96917141	     17.85982768	     -3.80855370	     -4.14076560	      0.00000000	      0.00000000	      0.00000000
